<svg width="577" height="202" viewBox="0 0 577 202" fill="none" xmlns="http://www.w3.org/2000/svg">
<ellipse cx="169.5" cy="88.5" rx="58.5" ry="55.5" fill="#C82441"/>
<ellipse cx="27.4329" cy="22.4357" rx="27.4329" ry="22.4357" transform="matrix(-0.752656 0.658414 -0.584278 -0.811554 296 117.565)" fill="#C82441"/>
<ellipse cx="11.9293" cy="11.8259" rx="11.9293" ry="11.8259" transform="matrix(0.905645 0.424037 -0.35957 0.933118 246.03 49.6035)" fill="#C82441"/>
<ellipse cx="35.5019" cy="34.7291" rx="35.5019" ry="34.7291" transform="matrix(-0.9677 0.252105 -0.191657 -0.981462 155.313 183.17)" fill="#C82441"/>
<ellipse cx="17.3302" cy="13.4479" rx="17.3302" ry="13.4479" transform="matrix(0.572055 -0.820215 0.732103 0.681194 37 159.535)" fill="#C82441"/>
<ellipse cx="7.07467" cy="7.50142" rx="7.07467" ry="7.50142" transform="matrix(-0.978658 -0.205496 0.155479 -0.987839 74.3571 193.569)" fill="#C82441"/>
<g filter="url(#filter0_d_6_201)">
<path d="M157.645 172.669C154.622 172.669 151.698 172.483 148.873 172.112C146.073 171.74 143.434 171.046 140.956 170.03C138.503 169.014 136.26 167.713 134.228 166.127C132.197 164.517 130.45 162.596 128.988 160.366C127.526 158.111 126.386 155.534 125.568 152.635C124.775 149.711 124.379 146.428 124.379 142.786C124.379 139.366 124.775 136.281 125.568 133.531C126.361 130.78 127.476 128.339 128.913 126.208C130.351 124.077 132.073 122.244 134.08 120.707C136.112 119.171 138.354 117.92 140.807 116.953C143.285 115.962 145.937 115.231 148.761 114.76C151.611 114.29 154.572 114.054 157.645 114.054C160.717 114.054 163.678 114.29 166.528 114.76C169.378 115.231 172.041 115.962 174.519 116.953C176.997 117.945 179.24 119.208 181.247 120.745C183.279 122.281 185.013 124.114 186.45 126.245C187.887 128.376 189.003 130.817 189.795 133.568C190.588 136.293 190.985 139.366 190.985 142.786C190.985 148.138 190.105 152.734 188.346 156.575C186.611 160.391 184.233 163.513 181.21 165.942C178.186 168.37 174.655 170.104 170.616 171.145C166.578 172.161 162.254 172.669 157.645 172.669ZM157.645 131.04C156.059 131.04 154.721 131.251 153.63 131.672C152.565 132.069 151.673 132.601 150.954 133.27C150.261 133.939 149.728 134.695 149.356 135.538C148.984 136.38 148.699 137.235 148.501 138.102C148.328 138.97 148.229 139.812 148.204 140.63C148.179 141.447 148.167 142.166 148.167 142.786C148.167 143.405 148.179 144.124 148.204 144.941C148.229 145.759 148.328 146.614 148.501 147.506C148.699 148.373 148.984 149.24 149.356 150.108C149.728 150.975 150.261 151.756 150.954 152.449C151.673 153.118 152.565 153.664 153.63 154.085C154.721 154.506 156.059 154.717 157.645 154.717C159.231 154.717 160.556 154.506 161.622 154.085C162.712 153.664 163.616 153.118 164.335 152.449C165.054 151.756 165.599 150.975 165.97 150.108C166.367 149.24 166.652 148.373 166.825 147.506C166.999 146.614 167.098 145.759 167.123 144.941C167.172 144.124 167.197 143.405 167.197 142.786C167.197 142.166 167.172 141.447 167.123 140.63C167.098 139.812 166.999 138.97 166.825 138.102C166.652 137.235 166.367 136.38 165.97 135.538C165.599 134.695 165.054 133.939 164.335 133.27C163.616 132.601 162.712 132.069 161.622 131.672C160.556 131.251 159.231 131.04 157.645 131.04ZM257.963 131.969C257.938 132.762 257.925 133.543 257.925 134.311C257.925 135.054 257.925 135.785 257.925 136.504V142.786C257.925 148.039 257.207 152.573 255.77 156.389C254.357 160.18 252.412 163.315 249.934 165.793C247.481 168.246 244.607 170.005 241.311 171.071C238.016 172.136 234.509 172.669 230.792 172.669C227.893 172.669 225.106 172.471 222.429 172.074C219.778 171.703 217.3 170.996 214.996 169.956C212.691 168.89 210.597 167.552 208.714 165.942C206.831 164.306 205.208 162.373 203.845 160.143C202.507 157.888 201.466 155.324 200.723 152.449C200.004 149.575 199.645 146.354 199.645 142.786V131.969L194.888 131.04V114.909H225.775V131.04L221.017 131.969V136.764C221.017 137.384 221.017 138.016 221.017 138.66C221.017 139.279 221.017 139.862 221.017 140.407C221.042 140.952 221.054 141.435 221.054 141.856C221.054 142.278 221.054 142.587 221.054 142.786C221.054 143.405 221.067 144.124 221.091 144.941C221.116 145.759 221.215 146.614 221.389 147.506C221.587 148.373 221.872 149.24 222.244 150.108C222.615 150.975 223.148 151.756 223.842 152.449C224.56 153.118 225.453 153.664 226.518 154.085C227.608 154.506 228.946 154.717 230.532 154.717C232.118 154.717 233.444 154.506 234.509 154.085C235.6 153.664 236.504 153.118 237.223 152.449C237.941 151.756 238.486 150.975 238.858 150.108C239.254 149.24 239.539 148.373 239.713 147.506C239.886 146.614 239.985 145.759 240.01 144.941C240.06 144.124 240.085 143.405 240.085 142.786C240.085 142.587 240.085 142.278 240.085 141.856C240.085 141.435 240.072 140.952 240.047 140.407C240.047 139.862 240.047 139.279 240.047 138.66C240.047 138.016 240.047 137.384 240.047 136.764V131.969L235.29 131.04V114.909H262.72V131.04L257.963 131.969ZM318.77 114.909V133.939H312.526C312.105 133.394 311.622 132.837 311.077 132.267C310.531 131.697 309.924 131.189 309.255 130.743C308.586 130.272 307.855 129.9 307.062 129.628C306.269 129.33 305.415 129.182 304.498 129.182V154.94L309.255 155.869V172H275.952V155.869L280.71 154.94V129.182C279.793 129.182 278.938 129.33 278.145 129.628C277.352 129.9 276.621 130.272 275.952 130.743C275.283 131.189 274.676 131.697 274.131 132.267C273.586 132.837 273.103 133.394 272.681 133.939H266.437V114.909H318.77Z" fill="url(#paint0_linear_6_201)"/>
</g>
<g filter="url(#filter1_d_6_201)">
<path d="M10.0469 78.1562C10.0469 71.625 10.9844 66.1094 12.8594 61.6094C14.7656 57.1094 17.4688 53.4219 20.9688 50.5469C24.3125 47.7969 28.2344 45.6719 32.7344 44.1719C37.2344 42.6719 42.4062 41.9219 48.25 41.9219C52.2812 41.9219 55.8594 42.0938 58.9844 42.4375C62.1094 42.7812 64.8906 43.2344 67.3281 43.7969C69.7969 44.3594 71.9844 45 73.8906 45.7188C75.8281 46.4375 77.625 47.1875 79.2812 47.9688V69.3906H65.1719C63.5781 67.1406 61.7969 65.4844 59.8281 64.4219C57.8906 63.3594 55.8906 62.8281 53.8281 62.8281C52.0781 62.8281 50.375 63.1719 48.7188 63.8594C47.0938 64.5469 45.6406 65.5469 44.3594 66.8594C43.0781 68.1719 42.0469 69.7812 41.2656 71.6875C40.4844 73.5625 40.0938 75.7188 40.0938 78.1562C40.0938 83.5625 41.3125 87.5156 43.75 90.0156C46.2188 92.5156 49.7188 93.7656 54.25 93.7656C55.375 93.7656 56.5 93.7031 57.625 93.5781C58.7812 93.4531 59.9375 93.2656 61.0938 93.0156V87.3438H52.0938V74.5H81.25V108.719C78.7812 109.75 76.1562 110.734 73.375 111.672C70.625 112.578 67.8594 113.375 65.0781 114.062C62.3281 114.719 59.625 115.172 56.9688 115.422C54.3125 115.703 51.8594 115.844 49.6094 115.844C45.9219 115.844 42.3906 115.578 39.0156 115.047C35.6406 114.516 32.4844 113.562 29.5469 112.188C26.6406 110.812 23.9844 109.094 21.5781 107.031C19.1719 104.938 17.1094 102.484 15.3906 99.6719C13.7031 96.8281 12.3906 93.625 11.4531 90.0625C10.5156 86.4688 10.0469 82.5 10.0469 78.1562ZM119.52 115.669C116.497 115.669 113.573 115.483 110.748 115.112C107.948 114.74 105.309 114.046 102.831 113.03C100.378 112.014 98.1353 110.713 96.1035 109.127C94.0716 107.517 92.3247 105.596 90.8627 103.366C89.4007 101.111 88.2609 98.5343 87.4432 95.6352C86.6503 92.7112 86.2538 89.428 86.2538 85.7855C86.2538 82.366 86.6503 79.281 87.4432 76.5305C88.2361 73.7801 89.3512 71.3393 90.7884 69.2083C92.2255 67.0773 93.9477 65.2437 95.9548 63.7074C97.9867 62.1711 100.229 60.9197 102.682 59.9533C105.16 58.9622 107.812 58.2312 110.636 57.7604C113.486 57.2896 116.447 57.0542 119.52 57.0542C122.592 57.0542 125.553 57.2896 128.403 57.7604C131.253 58.2312 133.916 58.9622 136.394 59.9533C138.872 60.9445 141.115 62.2082 143.122 63.7445C145.154 65.2808 146.888 67.1145 148.325 69.2455C149.762 71.3765 150.878 73.8172 151.67 76.5677C152.463 79.2934 152.86 82.366 152.86 85.7855C152.86 91.1378 151.98 95.7343 150.221 99.575C148.486 103.391 146.108 106.513 143.085 108.942C140.061 111.37 136.53 113.104 132.491 114.145C128.453 115.161 124.129 115.669 119.52 115.669ZM119.52 74.0402C117.934 74.0402 116.596 74.2509 115.505 74.6721C114.44 75.0686 113.548 75.6013 112.829 76.2703C112.136 76.9394 111.603 77.6951 111.231 78.5376C110.859 79.3801 110.574 80.235 110.376 81.1023C110.203 81.9695 110.104 82.812 110.079 83.6297C110.054 84.4474 110.042 85.166 110.042 85.7855C110.042 86.405 110.054 87.1236 110.079 87.9413C110.104 88.759 110.203 89.6139 110.376 90.5059C110.574 91.3732 110.859 92.2404 111.231 93.1077C111.603 93.975 112.136 94.7555 112.829 95.4493C113.548 96.1184 114.44 96.6635 115.505 97.0847C116.596 97.506 117.934 97.7166 119.52 97.7166C121.106 97.7166 122.431 97.506 123.497 97.0847C124.587 96.6635 125.491 96.1184 126.21 95.4493C126.929 94.7555 127.474 93.975 127.845 93.1077C128.242 92.2404 128.527 91.3732 128.7 90.5059C128.874 89.6139 128.973 88.759 128.998 87.9413C129.047 87.1236 129.072 86.405 129.072 85.7855C129.072 85.166 129.047 84.4474 128.998 83.6297C128.973 82.812 128.874 81.9695 128.7 81.1023C128.527 80.235 128.242 79.3801 127.845 78.5376C127.474 77.6951 126.929 76.9394 126.21 76.2703C125.491 75.6013 124.587 75.0686 123.497 74.6721C122.431 74.2509 121.106 74.0402 119.52 74.0402Z" fill="url(#paint1_linear_6_201)"/>
</g>
<defs>
<filter id="filter0_d_6_201" x="114.864" y="114.054" width="213.422" height="77.6451" filterUnits="userSpaceOnUse" color-interpolation-filters="sRGB">
<feFlood flood-opacity="0" result="BackgroundImageFix"/>
<feColorMatrix in="SourceAlpha" type="matrix" values="0 0 0 0 0 0 0 0 0 0 0 0 0 0 0 0 0 0 127 0" result="hardAlpha"/>
<feOffset dy="9.51515"/>
<feGaussianBlur stdDeviation="4.75758"/>
<feComposite in2="hardAlpha" operator="out"/>
<feColorMatrix type="matrix" values="0 0 0 0 0 0 0 0 0 0 0 0 0 0 0 0 0 0 0.25 0"/>
<feBlend mode="normal" in2="BackgroundImageFix" result="effect1_dropShadow_6_201"/>
<feBlend mode="normal" in="SourceGraphic" in2="effect1_dropShadow_6_201" result="shape"/>
</filter>
<filter id="filter1_d_6_201" x="0.53172" y="41.9219" width="161.843" height="92.9522" filterUnits="userSpaceOnUse" color-interpolation-filters="sRGB">
<feFlood flood-opacity="0" result="BackgroundImageFix"/>
<feColorMatrix in="SourceAlpha" type="matrix" values="0 0 0 0 0 0 0 0 0 0 0 0 0 0 0 0 0 0 127 0" result="hardAlpha"/>
<feOffset dy="9.51515"/>
<feGaussianBlur stdDeviation="4.75758"/>
<feComposite in2="hardAlpha" operator="out"/>
<feColorMatrix type="matrix" values="0 0 0 0 0 0 0 0 0 0 0 0 0 0 0 0 0 0 0.25 0"/>
<feBlend mode="normal" in2="BackgroundImageFix" result="effect1_dropShadow_6_201"/>
<feBlend mode="normal" in="SourceGraphic" in2="effect1_dropShadow_6_201" result="shape"/>
</filter>
<linearGradient id="paint0_linear_6_201" x1="349.174" y1="81" x2="349.174" y2="195.182" gradientUnits="userSpaceOnUse">
<stop stop-color="#ECE3F7"/>
<stop offset="1" stop-color="#B7C7FF"/>
</linearGradient>
<linearGradient id="paint1_linear_6_201" x1="102.5" y1="0" x2="102.5" y2="114" gradientUnits="userSpaceOnUse">
<stop stop-color="white"/>
<stop offset="1" stop-color="#BBCAFF"/>
</linearGradient>
</defs>
</svg>
